<?xml version="1.0" encoding="utf-8"?>
<!-- Generator: Adobe Illustrator 19.1.1, SVG Export Plug-In . SVG Version: 6.00 Build 0)  -->
<svg version="1.1" xmlns="http://www.w3.org/2000/svg" xmlns:xlink="http://www.w3.org/1999/xlink" x="0px" y="0px"
	 viewBox="0 0 1500 1000" enable-background="new 0 0 1500 1000" xml:space="preserve">
<g id="background">
	<g>
		<rect x="0" fill="rgba(0,0,0,0)" width="1500" height="1000"/>
		<path fill="#EAEFF9" d="M1261.877,842.25H215.805c-6.455,0-11.687-5.233-11.687-11.687l0,0c0-6.455,5.233-11.687,11.687-11.687
			h1046.072c6.455,0,11.687,5.233,11.687,11.687l0,0C1273.564,837.017,1268.332,842.25,1261.877,842.25z"/>
		<g>
			<g>
				<path fill="#F0AF79" d="M995.654,407.546l27.706-1.433c16.217-0.839,27.817,15.447,21.724,30.499l-3.409,8.422l-59.155-0.524
					L995.654,407.546z"/>
				<path fill="#B2C5E9" d="M839.059,526.091h106.554c3.918,0,6.609,3.942,5.183,7.591l-81.084,207.392l112.996,5.36l-49.312-40.318
					l61.887-181.282c3.661-11.756-3.236-24.188-15.148-27.304l-88.692-23.201c-11.146-2.916-17.306-14.849-13.229-25.624
					l13.605-35.951c3.521-9.303,9.521-17.465,17.35-23.601l61.369-48.099l-145.611-3.389L839.059,526.091z"/>
				<path fill="#383A47" d="M821.907,533.595h106.554c3.918,0,6.609,3.942,5.183,7.591l-81.084,207.392h112.996l-50.384-38.174
					l62.959-178.066c3.661-11.756-3.236-24.188-15.148-27.304L821.907,468.13V533.595z"/>
				<g>
					<path fill="#C8D6F0" d="M1120.107,391.247c0,0,19.207,7.589,21.258,30.073c2.052,22.484-10.551,33.59-10.551,33.59
						L1120.107,391.247z"/>
					<g>
						<path fill="#FAA800" d="M1038.617,439.186l77.026-48.969c3.884-2.236,8.803,0.11,9.511,4.535l8.96,56.002
							c0.639,3.994-2.542,7.572-6.584,7.404l-72.998-3.363L1038.617,439.186z"/>
					</g>
					<path fill="#FFBE00" d="M1134.114,450.753l-8.96-56.002c-0.708-4.425-5.628-6.77-9.511-4.535l-41.95,26.67
						c14.636,10.743,26.901,24.883,36.792,40.486l17.046,0.785C1131.572,458.325,1134.753,454.748,1134.114,450.753z"/>
					<path fill="#383A47" d="M655.449,342.394l-41.046-174.878c-0.504-2.204-2.464-3.766-4.725-3.766l0,0
						c-3.133,0-5.442,2.927-4.714,5.974l41.853,172.671H655.449z"/>
					<g>
						<path fill="#383A47" d="M1290.937,744.847c-16.026,50.48-69.939,91.403-120.42,91.403s-78.411-40.922-62.386-91.403
							c16.026-50.48,69.939-91.403,120.42-91.403S1306.962,694.367,1290.937,744.847z"/>
						<path fill="#969696" d="M1240.415,744.847c-7.168,22.578-31.281,40.881-53.859,40.881c-22.578,0-35.071-18.303-27.903-40.881
							c7.168-22.578,31.281-40.881,53.859-40.881C1235.09,703.966,1247.583,722.269,1240.415,744.847z"/>
					</g>
					<g>
						<path fill="#383A47" d="M704.948,744.847c-16.026,50.48-69.939,91.403-120.419,91.403s-78.412-40.922-62.386-91.403
							c16.026-50.48,69.939-91.403,120.419-91.403S720.974,694.367,704.948,744.847z"/>
						<path fill="#969696" d="M654.427,744.847c-7.168,22.578-31.281,40.881-53.859,40.881c-22.578,0-35.071-18.303-27.903-40.881
							c7.168-22.578,31.281-40.881,53.859-40.881C649.102,703.966,661.594,722.269,654.427,744.847z"/>
					</g>
					<path fill="#FAA800" d="M1118.786,672.887c-31.847,19.968-59.548,42.9-76.801,58.242c-6.863,6.103-2.536,17.449,6.647,17.449
						h279.541c4.667,0,8.297-4.053,7.777-8.691c-2.936-26.2-18.192-102.927-96.311-107.894c-18.561-1.18-38.198,2.628-57.768,9.494
						L1118.786,672.887z"/>
					<path fill="#FFBE00" d="M1275.527,690.679c16.506,3.588,32.046,3.311,46.63-1.109c-12.832-27.428-37.002-54.683-82.518-57.577
						c-11.466-0.729-23.343,0.45-35.36,3.073C1218.71,662.445,1243.344,683.639,1275.527,690.679z"/>
					<path fill="#FA9500" d="M1118.786,672.887l-6.925-155.603l10.882,3.18c35.442,56.894,59.128,121.022,59.128,121.022
						L1118.786,672.887z"/>
					<path fill="#FAA800" d="M1124.92,574.259l-17.721-63.503c-31.937,0-57.826,25.89-57.826,57.826v176.265l75.547-57.826V574.259z
						"/>
					<path fill="#FA9500" d="M1124.919,687.021l0-112.762l-17.721-63.503c-7.859,0-15.349,1.575-22.181,4.415
						c17.778,28.627,27.555,86.115,13.467,118.049c-10.039,20.914-27.259,36.604-49.112,42.488v69.14L1124.919,687.021z"/>
					<path fill="#FFBE00" d="M834.372,555.513c0,0-80.211,60.624-58.759,123.114c21.452,62.49,87.223,69.951,174.895,64.355
						c167.372-10.683,237.056-191.872,83.23-296.453c-3.106-2.112-3.776-6.411-1.43-9.344l0,0c1.844-2.305,5.018-3.066,7.698-1.829
						c23.154,10.684,124.599,86.415,104.5,209.694c-13.99,85.807-125.912,131.508-233.17,131.508H778.411
						c-15.453,0-27.98-12.527-27.98-27.98l0,0H458.501C458.501,748.578,571.356,534.061,834.372,555.513z"/>
					<polygon fill="#383A47" points="579.276,673.599 548.545,539.24 538.539,539.24 570.642,673.599 					"/>
					<path fill="#FAA800" d="M750.431,748.578c0,0-2.687-110.589-96.999-116.585c-71.862-4.569-159.841,65.513-197.653,99.136
						c-6.862,6.102-2.537,17.449,6.646,17.449H750.431z"/>
					<path fill="#FA9500" d="M653.432,631.993c-3.139-0.2-6.31-0.248-9.505-0.172c22.64,8.974,41.999,24.793,53.627,47.496
						c10.11,20.219,10.947,45.734,6.16,69.262h46.717C750.431,748.578,747.744,637.989,653.432,631.993z"/>
					<g>
						<path fill="#B2C5E9" d="M729.445,555.513l-43.13-220.058c-0.468-2.418-2.586-4.164-5.049-4.164H421.821l48.173,224.223
							H729.445z"/>
						<path fill="#383A47" d="M658.525,533.595h183.811c5.646,0,10.223,4.577,10.223,10.223v1.472
							c0,5.646-4.577,10.223-10.223,10.223H658.525c-5.646,0-10.223-4.577-10.223-10.223v-1.472
							C648.302,538.172,652.879,533.595,658.525,533.595z"/>
						<path fill="#C8D6F0" d="M687.475,555.513L643.538,331.29H386.25c-3.286,0-5.729,3.04-5.022,6.25l45.906,213.938
							c0.52,2.357,2.608,4.036,5.022,4.036H687.475z"/>
						<g>
							<path fill="#FFFFFF" d="M625.134,465.979c-20.159-45.783-57.143-81.806-104.14-101.43c-1.28-0.535-2.629-0.806-4.009-0.806
								c-4.95,0-9.252,3.528-10.23,8.387c-1.854,9.202-4.24,19.463-7.093,30.499c-9.449,36.559-23.066,77.944-33.874,109.912
								c-1.091,3.224-0.583,6.655,1.394,9.41c1.965,2.739,5.132,4.374,8.471,4.374c1.241,0,2.47-0.222,3.649-0.661
								c5.093-1.89,10.04-3.712,14.863-5.476c0.506-0.185,1.011-0.37,1.514-0.553c21.938-8.01,41.147-14.733,58.346-20.425
								c13.534-4.479,26.135-8.421,37.457-11.718l0.054-0.016c9.47-2.758,18.395-5.17,26.53-7.17
								c3.005-0.739,5.513-2.755,6.879-5.532C626.308,472.007,626.377,468.8,625.134,465.979z"/>
							<g>
								<path fill="#FA9500" d="M575.464,452.183c6.402,9.07,11.123,18.812,14.274,29.119c9.302-2.708,18.265-5.143,26.792-7.24
									c2.412-0.593,3.719-3.217,2.718-5.49c-19.501-44.289-55.724-79.293-100.732-98.087c-2.328-0.972-4.958,0.443-5.456,2.916
									c-1.961,9.733-4.386,20.064-7.17,30.838C534.164,409.905,558.391,426.914,575.464,452.183z"/>
								<path fill="#FFBE00" d="M557.348,465.806c6.952-5.688,17.34-6.952,25.061-2.274c-2.049-3.887-4.352-7.676-6.945-11.349
									c-17.073-25.269-41.3-42.278-69.574-47.944c-8.765,33.915-21.122,72.246-34.009,110.363
									c-1.079,3.19,2.027,6.206,5.184,5.034c25.419-9.433,50.818-18.548,74.939-26.531
									C548.193,483.808,548.484,473.737,557.348,465.806z"/>
								<path fill="#E2342B" d="M582.409,463.532c-7.721-4.678-18.109-3.414-25.061,2.274c-8.864,7.931-9.156,18.002-5.343,27.299
									c13.016-4.307,25.666-8.29,37.733-11.803C587.863,475.169,585.419,469.242,582.409,463.532z"/>
								<path fill="#E2342B" d="M525.327,459.401c8.314-8.314,8.314-21.793,0-30.107c-6.824-6.824-17.127-8.042-25.198-3.663
									c-2.661,9.38-5.547,19.022-8.591,28.828c0.959,1.774,2.183,3.443,3.682,4.942
									C503.533,467.715,517.013,467.715,525.327,459.401z"/>
								<path fill="#E2342B" d="M528.12,497.548c-8.742-8.742-22.915-8.742-31.657,0c-4.753,4.753-6.916,11.111-6.5,17.33
									c13.65-5.004,27.234-9.878,40.555-14.493C529.808,499.391,529.012,498.44,528.12,497.548z"/>
							</g>
						</g>
						<path opacity="0.42" fill="#C8D6F0" d="M412.572,485.416l14.562,66.061c0.52,2.357,2.608,4.035,5.022,4.035h37.838h217.481
							h41.971l-13.314-68.729C629.673,486.044,498.899,485.521,412.572,485.416z"/>
					</g>
					<path fill="#E2342B" d="M604.963,169.724l-108.784,11.568c-3.247,0.345-3.774,4.853-0.694,5.938l124.102,43.7L604.963,169.724z
						"/>
					<path fill="#383A47" d="M1045.472,454.18l-33.089-5.629c-5.309-0.903-8.88-5.938-7.977-11.247l0.235-1.384
						c0.903-5.309,5.938-8.88,11.247-7.977l33.089,5.629c5.308,0.903,8.88,5.938,7.977,11.247l-0.235,1.384
						C1055.816,451.512,1050.78,455.083,1045.472,454.18z"/>
				</g>
				<g>
					<path fill="#F0AF79" d="M1046.731,428.755l-3.92,14.032c-2.316,8.291-10.667,13.363-19.092,11.596h0
						c-7.567-1.587-12.987-8.261-12.987-15.993v-21.829L1046.731,428.755z"/>
				</g>
				<path fill="#E2342B" d="M841.6,533.595H702.914c0,0-11.792-177.485,212.258-223.315L841.6,533.595z"/>
				<g>
					<path fill="#F0AF79" d="M1058.266,304.305l-3.599,84.787c-0.141,3.329-2.727,6.031-6.046,6.331
						c-25.645,2.317-127.753,5.966-132.911-82.088L1058.266,304.305z"/>
					<path fill="#F0AF79" d="M1052.423,310.524c0,0,6.314,15.502,15.427,23.961c13.453,12.487-23.602,9.592-25.946,9.271
						C1039.56,343.436,1052.423,310.524,1052.423,310.524z"/>
					<path fill="#383A47" d="M960.704,295.281c0,0,10.737,64.646-64.318,72.017l18.785-63.288L960.704,295.281z"/>
					<g>
						<path fill="#068FB9" d="M920.384,329.227h145.574c5.534,0,10.02-4.486,10.02-10.02v-60.016H920.384V329.227z"/>
						<path fill="#30A2C5" d="M1007.397,259.192c-11.94,20.898-26.215,50.631-40.197,70.035h29.871
							c13.504-19.768,27.232-50.112,40.726-70.035H1007.397z"/>
						<path fill="#30A2C5" d="M1058.543,259.192c-12.007,19.459-24.261,49.199-33.834,70.035h12.22
							c12.003-19.219,23.582-49.484,33.854-70.035H1058.543z"/>
						<path fill="#FFBE00" d="M956.481,259.192h119.497c-10.166-43.695-49.518-76.187-96.395-75.81
							c-52.69,0.423-96.054,43.085-97.306,95.762c-0.163,6.851,0.381,37.663,1.559,44.137c0.884,4.861,5.104,8.405,10.045,8.405
							h18.688c18.702,0,33.864-15.161,33.864-33.864v-28.582C946.433,263.69,950.931,259.192,956.481,259.192z"/>
						<path fill="#FFD31F" d="M942.133,232.931c17.663-10.437,23.299-29.293,20.963-48.01c-32.13,5.784-59.031,27.381-72.182,56.41
							C907.439,245.318,925.601,242.19,942.133,232.931z"/>
						<g>
							<g>
								<g>
									<path fill="#FAA800" d="M928.555,269.239v28.582c0,18.702-15.161,33.864-33.864,33.864h17.878
										c18.703,0,33.864-15.161,33.864-33.864v-28.582c0-5.549,4.498-10.048,10.047-10.048h-17.878
										C933.054,259.192,928.555,263.69,928.555,269.239z"/>
								</g>
								<g>
									<path fill="#FAA800" d="M979.583,183.382c-2.748,0.022-5.468,0.166-8.161,0.413c42.519,3.829,77.222,34.759,86.677,75.397
										h17.878C1065.811,215.497,1026.46,183.005,979.583,183.382z"/>
								</g>
							</g>
						</g>
					</g>
				</g>
				<path fill="#FFFFFF" d="M1044.175,354.909l-44.612-13.946c-0.998-0.312-2.046,0.318-2.225,1.348
					c-0.895,5.136-1.72,19.363,14.362,26.955c16.342,7.716,29.17-6.25,33.334-11.644
					C1045.772,356.664,1045.329,355.27,1044.175,354.909z"/>
				<path fill="#C8D6F0" d="M814.332,356.001l23.824,85.645c2.013,7.236,8.816,12.076,16.312,11.603l128.052-8.74l13.134-36.964
					l-122.315,7.472c-1.704,0.096-3.218-1.078-3.55-2.752l-13.159-66.329c-2.825-14.239-18.536-21.769-31.405-15.053l0,0
					C816.121,335.636,811.579,346.107,814.332,356.001z"/>
				<path fill="#B2C5E9" d="M995.654,407.546l-28.508,1.601c-4.377,12.404-8.987,24.766-13.423,37.176l28.797-1.814L995.654,407.546
					z"/>
				<path fill="#B2C5E9" d="M833.599,425.263l4.558,16.384c2.013,7.236,8.816,12.076,16.312,11.603l22.701-1.43
					C867.238,435.984,851.558,425.547,833.599,425.263z"/>
			</g>
			<path fill="#C8D6F0" d="M471.649,827.974c4.444,0,7.442-4.537,5.689-8.62c-6.285-14.633-20.764-42.767-39.204-42.795
				c-24.923-0.038-16.883,33.728-16.883,33.728s-49.846-91.652-102.908-91.652s0,73.965,0,73.965s-32.159-40.198-57.886-35.374
				s0,43.414,0,43.414s-50.505-44.568-85.426-24.081c-16.141,9.469-8.05,22.323,4.077,32.81
				c14.114,12.205,32.335,18.606,50.994,18.606H471.649z"/>
			<path fill="#C8D6F0" d="M1102.533,836.25c2.702,0,4.398-2.922,3.045-5.26c-5.634-9.732-18.708-29.625-31.781-30.313
				c-17.331-0.912-10.49,17.331-10.49,17.331s-13.682-31.473-39.222-28.278c-25.54,3.195,9.627,31.927,9.627,31.927
				s-26.501-14.594-40.183-6.385c-13.682,8.209-6.377,20.979,26.456,20.979H1102.533z"/>
		</g>
	</g>
</g>
</svg>
